<svg version="1.1" id="Layer_1" xmlns="http://www.w3.org/2000/svg" xmlns:xlink="http://www.w3.org/1999/xlink" x="0px" y="0px"
	 width="100%" viewBox="0 0 592 592" enable-background="new 0 0 592 592" xml:space="preserve">
<path fill="#000000" opacity="1.000000" stroke="none" 
	d="
M38.688618,323.965515 
	C35.902050,309.882080 34.332279,296.106354 33.496037,282.183350 
	C33.007336,274.046753 32.432644,265.922607 32.712498,257.796234 
	C33.907383,223.098801 41.402390,190.110123 59.855377,160.196060 
	C60.622391,158.952652 61.358006,157.593750 62.981236,157.110550 
	C64.965958,158.133652 64.433472,160.026749 64.219528,161.506653 
	C60.794910,185.195724 64.505692,208.074539 72.745880,230.214935 
	C79.996078,249.695312 90.787735,267.176086 105.461014,282.059448 
	C118.058769,294.837585 132.872314,304.488434 148.759735,312.692932 
	C165.409164,321.290985 182.453018,329.389313 196.638824,341.938293 
	C208.569244,352.492096 220.001572,363.607941 231.688934,374.437744 
	C242.416458,384.378143 253.274628,394.179260 263.906494,404.220428 
	C268.947449,408.981262 274.818970,413.021698 278.390228,419.167480 
	C286.249390,432.692566 281.687622,447.053314 268.190308,452.257294 
	C260.741608,455.129181 252.955261,454.021088 246.133774,449.904877 
	C230.367477,440.391144 215.081573,430.088531 199.036911,421.024933 
	C193.653625,417.983887 188.213058,415.044220 182.649033,411.975708 
	C181.496918,415.071625 183.462936,416.403625 184.507462,417.881378 
	C195.011688,432.742432 206.653214,446.449768 222.489532,456.076050 
	C233.581543,462.818481 245.805908,466.519714 258.197723,469.507904 
	C279.242126,474.582520 300.439240,479.025421 321.581787,483.690491 
	C330.250946,485.603333 336.962341,490.422394 342.398102,497.274750 
	C349.592010,506.343475 347.845551,525.910339 332.899048,531.540588 
	C323.565643,535.056458 314.446167,534.358398 304.972717,533.686218 
	C296.210144,533.064514 287.478088,532.223999 278.730865,531.488098 
	C259.533234,529.872803 240.562042,526.817383 221.962997,522.034119 
	C199.033218,516.137024 177.300079,507.086151 157.341980,494.132996 
	C140.440186,483.163422 125.015556,470.306030 110.930252,455.984314 
	C94.262329,439.036713 79.557312,420.538025 67.407692,399.923004 
	C53.486938,376.302765 45.067619,350.788025 38.688618,323.965515 
z"/>
<path fill="#000000" opacity="1.000000" stroke="none" 
	d="
M354.614441,175.861359 
	C352.606903,167.426178 352.934509,159.896423 359.475952,153.836914 
	C366.258331,147.554230 374.352448,146.772263 382.632690,149.472580 
	C393.983459,153.174194 405.000610,157.907120 416.373383,161.530518 
	C426.747467,164.835724 436.842438,169.132553 448.827728,171.550415 
	C444.434113,164.621887 439.081818,160.118378 433.919281,155.462341 
	C415.486755,138.838028 393.371124,133.286163 369.129486,133.199295 
	C360.190582,133.167267 351.160736,131.628906 342.264008,132.584244 
	C334.431427,133.425339 326.625946,133.632248 318.858887,133.230881 
	C310.494720,132.798660 302.020447,132.442795 294.192017,128.465546 
	C285.276947,123.936211 281.347900,116.614929 281.741547,107.026840 
	C282.123383,97.725502 287.031433,91.376610 295.603241,87.502647 
	C305.170502,83.178787 315.540100,82.637718 325.582520,80.867386 
	C347.542938,76.996086 369.769531,76.364021 392.076996,76.523209 
	C414.631500,76.684158 436.153870,81.154961 457.132721,89.058601 
	C485.072083,99.584541 509.168182,116.263840 530.988586,136.195053 
	C548.040588,151.770599 561.488525,170.300446 570.366516,191.770065 
	C576.286499,206.086121 579.357605,221.029221 580.554199,236.617752 
	C582.389709,260.528015 578.200928,283.179871 569.223816,305.096802 
	C564.939758,315.556061 559.208252,325.314972 552.482178,334.441040 
	C551.607483,335.627808 550.674500,336.844177 548.639099,336.995728 
	C547.094116,334.251068 546.891602,331.015503 546.832947,328.086670 
	C546.529419,312.924286 540.858337,299.617828 532.917236,287.177582 
	C520.829651,268.241516 503.327332,256.598846 481.759155,251.146271 
	C461.220764,245.954025 442.750000,236.533752 424.980713,225.280991 
	C405.625183,213.023697 385.942657,201.283798 366.476318,189.199738 
	C361.387573,186.040833 356.531799,182.478165 354.614441,175.861359 
z"/>
<path fill="#000000" opacity="1.000000" stroke="none" 
	d="
M377.863831,388.873047 
	C399.472198,367.592316 420.400208,346.147644 441.817047,325.187012 
	C450.091034,317.089294 458.784302,309.233307 465.787720,299.872681 
	C471.391296,292.383057 475.953247,284.255066 479.012512,275.446686 
	C480.459045,271.281830 482.419983,270.303467 486.260071,271.823761 
	C503.282349,278.562805 515.836487,290.077087 523.253113,306.868103 
	C526.685974,314.640015 528.839050,322.948364 529.132874,331.391449 
	C529.551270,343.415466 527.910400,355.546722 522.063416,366.052734 
	C518.560059,372.347656 512.067017,377.001343 506.825714,382.301697 
	C496.241089,393.005585 485.665619,403.720215 474.957123,414.299561 
	C453.175873,435.818115 431.280731,457.221313 409.488678,478.728973 
	C398.254944,489.816040 387.143433,501.026855 375.971893,512.177002 
	C374.465424,513.680542 373.187256,515.550781 370.224579,515.624023 
	C368.817352,511.482910 369.894348,506.972931 368.841125,502.664032 
	C365.096924,487.345795 357.045837,475.702637 342.976318,467.949005 
	C334.501923,463.278809 325.397034,461.186157 316.281067,458.769836 
	C311.375854,457.469666 310.847046,455.768433 314.347687,452.270294 
	C335.421265,431.211609 356.522003,410.180176 377.863831,388.873047 
z"/>
<path fill="#000000" opacity="1.000000" stroke="none" 
	d="
M281.427979,147.617035 
	C293.352875,154.664047 305.730804,157.961517 319.263885,155.873947 
	C320.646118,155.660721 321.902039,155.747330 323.014008,156.699265 
	C327.244934,160.321304 330.025116,165.089722 332.990997,169.663895 
	C334.329254,171.727768 332.324707,173.397079 331.073608,174.863708 
	C325.464905,181.438629 320.023560,188.127304 315.671234,195.633850 
	C312.514771,201.077850 311.534637,207.551880 307.754333,212.704208 
	C305.463196,212.164841 305.083466,210.410126 304.418060,208.676285 
	C293.788940,180.979340 275.460815,160.920349 246.850967,151.305481 
	C214.054749,140.283707 184.268753,146.209778 157.986801,168.388641 
	C136.682800,186.366714 126.313622,209.961609 126.529724,237.648880 
	C126.658623,254.163300 131.947815,269.614410 140.958191,283.623138 
	C141.390198,284.294769 142.113281,284.859436 141.755707,285.948761 
	C139.878784,288.088928 138.432770,285.970215 137.208298,285.081482 
	C123.936676,275.448578 112.473480,263.962708 103.343468,250.342468 
	C91.718559,233.000320 84.889420,213.960190 82.464996,193.061386 
	C79.968857,171.544403 83.212784,151.169952 90.616386,131.018250 
	C94.016449,121.763680 101.235336,116.658318 108.609100,111.736343 
	C123.744461,101.633522 140.063019,93.918182 157.893936,89.679680 
	C175.677231,85.452507 193.601334,84.611786 211.776047,86.513283 
	C227.099167,88.116425 241.620605,92.342171 255.766312,98.225090 
	C258.261078,99.262604 259.485382,100.637169 259.363342,103.413223 
	C258.543427,122.057938 266.456207,136.427582 281.427979,147.617035 
z"/>
</svg>